<svg width="24" height="24" fill="none" xmlns="http://www.w3.org/2000/svg"><g filter="url(#a)" transform="translate(-17.999 -18)"><path d="M17.999 30c0 .868.102 1.71.255 2.528a11.704 11.704 0 0 0 1.609 3.906 12.228 12.228 0 0 0 3.65 3.677 11.487 11.487 0 0 0 3.907 1.608c.817.179 1.685.281 2.579.281.894 0 1.736-.102 2.579-.28a12.119 12.119 0 0 0 3.88-1.61 11.698 11.698 0 0 0 3.626-3.625 12.225 12.225 0 0 0 1.609-3.855c.204-.843.306-1.736.306-2.63 0-.868-.102-1.685-.255-2.502a12.072 12.072 0 0 0-1.583-3.881 12.35 12.35 0 0 0-3.6-3.677 12.339 12.339 0 0 0-3.856-1.66A13.51 13.51 0 0 0 30 18c-.842 0-1.66.077-2.451.255-1.404.281-2.732.843-3.906 1.583-1.481.92-2.732 2.17-3.703 3.626a12.119 12.119 0 0 0-1.66 3.906c-.178.817-.28 1.71-.28 2.63Z" fill="#34A264"/><path d="M23.157 30a6.843 6.843 0 1 0 13.686 0 6.843 6.843 0 0 0-13.686 0ZM27.548 18.255l.689 3.166a8.087 8.087 0 0 1 1.762-.178c.69 0 1.353.076 1.991.23l.715-3.167A11.885 11.885 0 0 0 30 18c-.843 0-1.66.077-2.451.255ZM27.42 41.72c.818.178 1.686.28 2.58.28.893 0 1.736-.102 2.578-.28l-.69-3.167a9.306 9.306 0 0 1-1.889.205 8.866 8.866 0 0 1-1.863-.205l-.715 3.166ZM17.999 30c0 .868.102 1.71.255 2.528l3.166-.69A8.632 8.632 0 0 1 21.216 30c0-.664.076-1.328.204-1.94l-3.166-.715A14.867 14.867 0 0 0 17.999 30ZM38.552 31.915l3.166.715c.179-.843.281-1.737.281-2.63 0-.868-.102-1.685-.255-2.502l-3.166.69c.127.586.178 1.2.178 1.812 0 .664-.076 1.302-.204 1.915ZM34.8 22.672a9.08 9.08 0 0 1 2.63 2.681l2.731-1.736a12.35 12.35 0 0 0-3.6-3.677L34.8 22.672ZM19.863 36.434a12.231 12.231 0 0 0 3.65 3.677l1.762-2.732a8.95 8.95 0 0 1-2.68-2.681l-2.732 1.736ZM19.94 23.438l2.732 1.762a8.67 8.67 0 0 1 2.706-2.655l-1.736-2.758c-1.481.97-2.758 2.196-3.702 3.651ZM34.722 37.379l1.736 2.757a12.061 12.061 0 0 0 3.626-3.65l-2.732-1.763c-.664 1.073-1.583 1.966-2.63 2.656Z" fill="#F1F2F2"/><path d="M31.121 29.381a.372.372 0 0 1 .126-.205.297.297 0 0 1 .216-.068c.08 0 .152.026.215.077.063.051.1.12.126.196v.009c.01.05.072.085.126.076.045-.008.072-.042.08-.085a.449.449 0 0 0-.134-.384.536.536 0 0 0-.189-.12.693.693 0 0 0-.215-.042.53.53 0 0 0-.405.17c-.099.103-.153.257-.126.376.01.051.054.077.108.068a.095.095 0 0 0 .072-.068ZM30.6 29.765c.17 0 .341.06.476.188a.59.59 0 0 1 .189.358.223.223 0 0 0 .063.12c.09.085.234.085.323 0a.2.2 0 0 0 .063-.154v-.145c0-.034.027-.06.063-.06.036 0 .108.103.126.128a.49.49 0 0 1-.063.666.563.563 0 0 1-.773 0l-.737-.7a.215.215 0 0 0-.125-.06c-.036 0-.054-.025-.054-.05v-.086c0-.06.018-.077.063-.128.045-.043.071-.077.152-.077h.234ZM29.028 29.381a.34.34 0 0 0-.135-.205.297.297 0 0 0-.216-.068.36.36 0 0 0-.341.273v.009c-.01.05-.072.085-.126.076-.045-.008-.072-.042-.081-.085a.448.448 0 0 1 .135-.384.593.593 0 0 1 .18-.12.693.693 0 0 1 .215-.042.53.53 0 0 1 .405.17c.098.103.152.257.125.376-.009.051-.054.077-.108.068a.113.113 0 0 1-.053-.068ZM29.549 29.765c-.171 0-.342.06-.477.188a.59.59 0 0 0-.188.358.224.224 0 0 1-.063.12.236.236 0 0 1-.324 0 .2.2 0 0 1-.063-.154v-.145c0-.034-.027-.06-.063-.06-.036 0-.107.103-.125.128a.49.49 0 0 0 .062.666.563.563 0 0 0 .773 0l.737-.7a.214.214 0 0 1 .126-.06c.036 0 .054-.025.054-.05v-.086c0-.06-.018-.077-.063-.128-.045-.043-.072-.077-.153-.077h-.233Z" fill="#34A264"/><path d="M26.52 30.183v-1.126c0-.034 0-.077.009-.11 0-.018.009-.035.009-.052 0-.017 0-.034.009-.051.009-.026.009-.051.018-.077 0-.008 0-.017.009-.026.009-.025.018-.06.036-.085 0 0 0-.008.009-.008.018-.035.027-.06.045-.094a1.03 1.03 0 0 1 .35-.376c.027-.017.045-.034.072-.042h.01c.026-.017.053-.026.08-.043.054-.026.108-.043.162-.06.027-.008.054-.017.08-.017.019 0 .028-.008.046-.008h.027c.09 0 .161.068.161.153V31.37c0 .017-.009.043-.009.06v.017c0 .017-.009.042-.009.06v.016c-.009.017-.009.043-.018.06v.017c-.009.026-.018.043-.027.068v.009a.665.665 0 0 1-.072.136c-.008.009-.008.017-.017.026-.01.008-.018.026-.027.034a.118.118 0 0 1-.027.034l-.018.017c-.01.017-.027.026-.036.043l-.01.008a1.128 1.128 0 0 1-.476.3c-.045.016-.063.059-.045.093.01.034.045.051.072.051.01 0 .018 0 .027-.008a1.21 1.21 0 0 0 .414-.23c.027-.018.045-.043.072-.06l.009-.009c.018-.017.036-.034.054-.06l.017-.017c.01-.008.018-.025.027-.034.072-.085.126-.18.171-.281v-.009l.027-.077c0-.008.01-.008.01-.017.008-.025.017-.042.017-.068 0-.009.01-.017.01-.034 0-.009 0-.017.008-.026 0-.017.01-.034.01-.05a.074.074 0 0 1 .089-.06c.045.008.072.042.063.085-.01.034-.01.06-.018.093 0 .018-.01.026-.01.043a.252.252 0 0 0-.017.068c0 .009-.009.026-.009.034a.295.295 0 0 1-.036.077c0 .009-.009.017-.009.026-.009.026-.027.051-.036.077 0 .008-.009.017-.009.017-.018.025-.027.05-.045.076-.009.009-.009.018-.018.026-.018.026-.036.043-.054.068l-.027.026c-.018.017-.036.043-.054.06-.009.017-.027.025-.036.034l-.044.042c-.019.018-.045.035-.063.052-.162.128-.35.23-.558.281-.045.009-.072.051-.054.094.01.034.045.06.081.06h.018c.432-.111.782-.384.989-.734 0-.009.009-.009.009-.017 0-.009.009-.009.009-.017.018-.034.036-.068.054-.111.018-.043.063-.06.108-.043.036.017.063.06.045.103-.09.196-.216.375-.378.529-.009.008-.018.017-.018.034a.73.73 0 0 0 .027 1.049.825.825 0 0 0 .575.222.865.865 0 0 0 .576-.222c.18-.17.26-.41.224-.648V32.836a.663.663 0 0 0-.638-.444.531.531 0 0 0-.548.52.45.45 0 0 0 .458.436.37.37 0 0 0 .378-.358.314.314 0 0 0-.324-.308.079.079 0 0 0-.08.077c0 .043.035.077.08.077.09 0 .162.068.162.154 0 .11-.099.204-.216.204-.162 0-.296-.128-.296-.281 0-.205.17-.367.386-.367.225 0 .422.136.485.341v.009a.592.592 0 0 1-.18.52.676.676 0 0 1-.916 0 .596.596 0 0 1 0-.87c.009-.008.018-.017.018-.026.243-.238.404-.528.485-.844v-.009c.01-.042.054-.068.1-.06a.079.079 0 0 1 .062.095c-.018.068-.045.144-.063.213a1.325 1.325 0 0 1-.108.23c-.018.034 0 .085.036.102.01.009.027.009.036.009.027 0 .054-.017.072-.043.045-.085.09-.179.126-.273 0-.008 0-.008.009-.017.009-.034.027-.068.036-.102 0-.009 0-.009.009-.017a.072.072 0 0 1 .099-.051c.045.008.072.05.054.093a2.221 2.221 0 0 1-.162.402h.197c.046 0 .081-.035.081-.077 0-.034 0-.069.01-.111 0-.026.008-.06.008-.086v-.008c.01-.026.01-.051.018-.077 0-.008 0-.008.01-.017.008-.026.017-.043.026-.068 0-.009.01-.017.01-.017.008-.017.017-.043.026-.06 0-.008.01-.008.01-.017.017-.034.062-.051.107-.034.036.017.054.068.036.102 0 .009-.009.017-.009.026-.009.017-.009.026-.018.043-.009.017-.009.025-.018.042s-.009.034-.018.043c0 .017-.009.025-.009.043 0 .017-.009.034-.009.05 0 .018-.009.026-.009.043 0 .034-.009.06-.009.094 0 .128.027.256.09.376.009.008.009.017.018.025a.885.885 0 0 1 .099.401c0 .043.036.077.08.077.046 0 .082-.034.082-.077a1.04 1.04 0 0 0-.153-.537.478.478 0 0 1-.045-.188v-.171c0-.017.009-.034.009-.05V32c.009-.043.054-.06.099-.051a.079.079 0 0 1 .063.094.524.524 0 0 0 .009.307c.009.034.036.051.072.051a.084.084 0 0 0 .063-.026c.035-.085.062-.17.09-.255.008-.043.053-.069.098-.06a.079.079 0 0 1 .063.094c-.036.145-.09.281-.153.41-.009.016-.009.025-.018.042-.018.034-.009.085.036.102-.045.026-.036.026-.018.026.027 0 .054-.017.072-.043.072-.128.126-.256.162-.392v-.009s0-.008.009-.008c0-.009 0-.009.009-.017l.009-.009.009-.008s.009-.01.018-.01c0 0 .009 0 .009-.008h.054s.009 0 .009.009c.009 0 .009 0 .018.009.009 0 .009.008.009.008l.009.008c0 .01.009.01.009.018v.017c.036.136.09.264.162.392.018.026.044.043.072.043.008 0 .026 0 .035-.009.036-.017.054-.068.036-.102-.009-.017-.009-.026-.018-.043a2.044 2.044 0 0 1-.152-.41.079.079 0 0 1 .063-.093c.044-.009.09.017.098.06.018.085.054.17.09.255a.084.084 0 0 0 .063.026.078.078 0 0 0 .072-.051.526.526 0 0 0 .027-.17c0-.043-.009-.086-.018-.137a.079.079 0 0 1 .063-.094c.045-.009.08.017.099.051v.017c0 .017.009.034.009.051v.026c0 .026.009.051.009.077v.068a1.158 1.158 0 0 1-.045.188c-.099.162-.153.35-.153.537 0 .043.036.077.081.077.045 0 .08-.034.08-.077 0-.136.037-.273.1-.4.009-.01.018-.018.018-.026a.798.798 0 0 0 .09-.376c0-.034 0-.06-.01-.094 0-.017 0-.025-.008-.042 0-.017-.01-.034-.01-.051 0-.018-.008-.026-.008-.043a.064.064 0 0 0-.018-.043c-.01-.017-.01-.025-.018-.042-.01-.018-.01-.026-.018-.043 0-.009-.01-.017-.01-.026-.017-.034 0-.085.037-.102.036-.017.09 0 .108.034 0 .009.009.009.009.017.009.017.017.043.026.06 0 .008.01.008.01.017.008.025.017.043.026.068 0 .009 0 .009.01.017.008.026.008.051.017.077v.009c.01.025.01.06.01.085 0 .034.008.068.008.11 0 .043.036.078.081.078H31.49a2.21 2.21 0 0 1-.162-.401c-.009-.043.01-.086.054-.094.045-.009.09.017.099.05 0 .01 0 .01.009.018a.466.466 0 0 0 .036.102c0 .009 0 .009.009.017.036.094.072.188.126.273.018.026.045.043.072.043.009 0 .026 0 .035-.009.037-.017.055-.068.037-.102-.046-.077-.072-.153-.108-.23-.027-.068-.045-.145-.063-.213a.079.079 0 0 1 .063-.094c.045-.009.09.017.099.06v.008c.08.316.242.606.485.845 0 .008.009.017.018.025a.596.596 0 0 1 0 .87.676.676 0 0 1-.917 0 .57.57 0 0 1-.18-.52v-.009a.5.5 0 0 1 .486-.34c.161 0 .341.17.341.374 0 .154-.135.282-.296.282-.117 0-.216-.094-.216-.205 0-.085.072-.153.162-.153.045 0 .08-.035.08-.077a.079.079 0 0 0-.08-.077.314.314 0 0 0-.324.307c0 .196.17.358.378.358a.449.449 0 0 0 .458-.435c0-.29-.243-.52-.548-.52a.663.663 0 0 0-.638.444v.025a.736.736 0 0 0 .224.649.825.825 0 0 0 .576.221.865.865 0 0 0 .575-.221.73.73 0 0 0 .027-1.05c0-.008-.01-.025-.018-.034a1.706 1.706 0 0 1-.378-.529c-.018-.042 0-.085.045-.102.045-.017.09 0 .108.043.018.034.036.076.054.11 0 .009.009.009.009.018 0 .008.009.008.009.017.207.35.557.622.989.733h.017a.086.086 0 0 0 .081-.06c.01-.042-.009-.085-.054-.093a1.359 1.359 0 0 1-.557-.282c-.018-.017-.045-.034-.063-.051l-.045-.043-.036-.034c-.018-.017-.035-.042-.053-.06l-.028-.025c-.018-.026-.035-.043-.053-.068-.01-.009-.01-.017-.018-.026a.34.34 0 0 1-.045-.077c0-.008-.01-.017-.01-.017-.017-.025-.026-.05-.035-.076 0-.01-.01-.018-.01-.026l-.026-.077c0-.008-.01-.026-.01-.034-.008-.026-.017-.051-.017-.068 0-.017-.01-.026-.01-.043-.008-.034-.017-.06-.017-.094-.01-.042.027-.076.063-.085.045-.009.09.026.09.06 0 .017.009.034.009.05 0 .01 0 .018.009.026 0 .009.009.017.009.035.009.025.009.042.018.068 0 .008.009.008.009.017l.026.077v.008c.045.102.1.196.171.282.01.008.018.025.027.034-.018-.009-.018-.009-.009 0 .018.017.036.042.054.06l.01.008c.026.026.044.043.071.06.117.102.26.179.413.23.01 0 .018.009.027.009.036 0 .063-.017.072-.052a.069.069 0 0 0-.045-.093 1.126 1.126 0 0 1-.476-.299l-.009-.008c-.009-.018-.027-.026-.036-.043l-.018-.017c-.009-.009-.018-.026-.027-.034-.009-.009-.018-.026-.027-.035-.009-.008-.009-.017-.018-.025a.996.996 0 0 1-.072-.137v-.008c-.009-.026-.018-.043-.027-.068v-.017c-.009-.017-.009-.043-.017-.06v-.017c-.01-.017-.01-.043-.01-.06v-.017c0-.017-.009-.043-.009-.06V28.153c0-.085.072-.154.162-.154h.027c.018 0 .027.009.045.009.027.008.054.008.081.017.054.017.108.034.162.06.027.008.054.025.08.042h.01c.027.017.054.026.072.043.143.094.27.222.35.375.018.026.027.06.045.094 0 0 0 .009.009.009.009.025.027.06.036.085 0 .008.009.017.009.026.009.025.018.05.018.076 0 .017.009.034.009.051 0 .018.009.035.009.052 0 .034.009.068.009.11v1.135c.629 0 1.132.478 1.132 1.075s-.503 1.075-1.132 1.075v.375a.402.402 0 0 1-.413.392c-.046 0-.081-.008-.117-.017l-.072-.025-.108-.043c-.018.58-.512 1.05-1.132 1.05-.324 0-.612-.128-.818-.333h-.01a1.135 1.135 0 0 0-.88-.401c-.36 0-.674.162-.88.4h-.01a1.155 1.155 0 0 1-.818.334c-.62 0-1.114-.47-1.132-1.05l-.108.043-.072.026a.553.553 0 0 1-.117.016.402.402 0 0 1-.413-.392v-.375c-.63 0-1.133-.478-1.133-1.075-.027-.589.477-1.075 1.106-1.075Zm6.713-1.552a.079.079 0 0 0-.08.076v1.723c0 .043.035.077.08.077s.081-.034.081-.077v-1.723a.079.079 0 0 0-.08-.076Zm.405 3.395c.45 0 .809-.342.809-.768a.75.75 0 0 0-.342-.623h-.009a.694.694 0 0 0-.782.111.507.507 0 0 0 0 .742c.09.086.207.128.324.128a.469.469 0 0 0 .323-.128.352.352 0 0 0 .108-.256.352.352 0 0 0-.108-.256.338.338 0 0 0-.458 0 .086.086 0 0 0 0 .111c.036.034.081.034.117 0a.163.163 0 0 1 .225 0 .195.195 0 0 1 .063.145.2.2 0 0 1-.063.145.298.298 0 0 1-.414 0 .353.353 0 0 1 0-.52.539.539 0 0 1 .593-.085c.171.12.27.298.27.495 0 .34-.288.614-.647.614-.36 0-.647-.273-.647-.614v-2.85a.079.079 0 0 0-.081-.077.079.079 0 0 0-.081.077v2.84c-.009.427.35.769.8.769Zm-6.633-3.319a.079.079 0 0 0-.08-.076.079.079 0 0 0-.082.076v1.723c0 .043.036.077.081.077.045 0 .081-.034.081-.077v-1.723Zm-.485 3.319c.45 0 .809-.342.809-.768v-2.84a.079.079 0 0 0-.081-.078.079.079 0 0 0-.081.077v2.84c0 .342-.288.615-.647.615-.36 0-.647-.273-.647-.614a.59.59 0 0 1 .27-.495.54.54 0 0 1 .593.085.353.353 0 0 1 0 .52.298.298 0 0 1-.414 0 .195.195 0 0 1-.063-.144c0-.051.027-.111.063-.145a.163.163 0 0 1 .225 0c.036.034.08.034.117 0 .036-.034.036-.077 0-.111a.338.338 0 0 0-.459 0 .352.352 0 0 0-.107.256c0 .094.036.188.107.256a.469.469 0 0 0 .648 0 .507.507 0 0 0 0-.742.694.694 0 0 0-.782-.111h-.01a.75.75 0 0 0-.341.622c-.009.436.35.777.8.777ZM29.467 26.2a.295.295 0 0 1-.072-.197c0-.17.144-.307.324-.307.018 0 .027 0 .045.008v-.042c0-.17.144-.307.323-.307.18 0 .324.136.324.307 0 .017 0 .025-.009.043.018 0 .027-.009.045-.009.18 0 .323.136.323.307a.312.312 0 0 1-.071.196h.602a.55.55 0 0 1-.566.538.55.55 0 0 1-.567-.538v-.017a.189.189 0 0 0 .126-.179.204.204 0 0 0-.207-.196.196.196 0 0 0-.197.196c0 .077.054.145.117.18v.016a.55.55 0 0 1-.567.538.55.55 0 0 1-.566-.538h.593Z" fill="#34A264"/><path d="M26.844 26.182c0-.008 0-.017-.01-.025V26.122c0-.008 0-.017.01-.017v-.008c0-.009.009-.017.009-.026a.106.106 0 0 1 .045-.043.78.78 0 0 1 .431-.136c.198 0 .377.068.512.205a.154.154 0 0 1 .045.102h.81a.55.55 0 0 1-.567.538c-.288 0-.521-.197-.557-.452a.417.417 0 0 0-.243-.086c-.045 0-.08.009-.126.017l.44.896h.81l.152-.145c-.027-.026-.027-.077 0-.111s.081-.034.117 0a.96.96 0 0 0 .647.256h.054a.962.962 0 0 0 .566-.196v-.009c.027-.034.081-.034.117-.008a.973.973 0 0 0 .593.204h.045a.985.985 0 0 0 .647-.256.098.098 0 0 1 .117 0c.027.026.027.06.01.094l.17.162h.809l.44-.895a.56.56 0 0 0-.126-.017c-.09 0-.17.025-.242.076-.036.265-.279.461-.558.461a.55.55 0 0 1-.566-.537h.81c0-.043.017-.077.044-.111a.757.757 0 0 1 .512-.205c.153 0 .306.043.432.137a.106.106 0 0 1 .045.042c.009.009.009.017.009.026v.008c0 .009 0 .017.009.026v.034a.152.152 0 0 1-.018.06l-.611 1.228c.044.026.08.077.08.128a.157.157 0 0 1-.161.154h-5.069a.157.157 0 0 1-.162-.154.14.14 0 0 1 .08-.128l-.61-1.228c.009 0 .009-.017.009-.026Zm3.9 1.084h-3.011l.072.153h4.539l.08-.154h-1.68Z" fill="#34A264"/></g><defs><filter id="a" x="-.001" y="0" width="60" height="60" filterUnits="userSpaceOnUse" color-interpolation-filters="sRGB"><feFlood flood-opacity="0" result="BackgroundImageFix"/><feColorMatrix in="SourceAlpha" values="0 0 0 0 0 0 0 0 0 0 0 0 0 0 0 0 0 0 127 0" result="hardAlpha"/><feOffset/><feGaussianBlur stdDeviation="9"/><feColorMatrix values="0 0 0 0 0 0 0 0 0 0 0 0 0 0 0 0 0 0 0.25 0"/><feBlend in2="BackgroundImageFix" result="effect1_dropShadow_554_36743"/><feBlend in="SourceGraphic" in2="effect1_dropShadow_554_36743" result="shape"/></filter></defs></svg>