<?xml version="1.0" encoding="UTF-8"?>
<!DOCTYPE svg PUBLIC "-//W3C//DTD SVG 1.1//EN" "http://www.w3.org/Graphics/SVG/1.1/DTD/svg11.dtd">
<!-- Creator: CorelDRAW -->
<svg xmlns="http://www.w3.org/2000/svg" xml:space="preserve" width="5.86146in" height="5.86146in" version="1.1" style="shape-rendering:geometricPrecision; text-rendering:geometricPrecision; image-rendering:optimizeQuality; fill-rule:evenodd; clip-rule:evenodd"
viewBox="0 0 6017.59 6017.59"
 xmlns:xlink="http://www.w3.org/1999/xlink"
 xmlns:xodm="http://www.corel.com/coreldraw/odm/2003">
 <defs>
  <style type="text/css">
   <![CDATA[
    .fil2 {fill:#DE0007}
    .fil0 {fill:#0A0A0A;fill-rule:nonzero}
    .fil1 {fill:#F1F2F2;fill-rule:nonzero}
   ]]>
  </style>
 </defs>
 <g id="Layer_x0020_1">
  <metadata id="CorelCorpID_0Corel-Layer"/>
  <path class="fil0" d="M0.09 3008.84c0,217.67 25.59,428.71 63.97,633.88 73.92,347.88 211.14,680.31 403.5,979.1 235.3,369.1 547.83,683.91 915.04,921.96 298.6,193.5 631.6,330.91 979.76,403.41 204.88,44.92 422.46,70.41 646.67,70.41 224.12,0 435.25,-25.59 646.67,-70.22 344.94,-76.95 674.72,-213.79 972.56,-403.69 366.36,-231.79 677.18,-542.62 909.16,-908.88 188.58,-296.52 325.51,-624.3 403.31,-966.69 51.17,-211.32 76.76,-435.25 76.76,-659.46 0,-217.67 -25.59,-422.46 -63.97,-627.34 -74.2,-344.66 -209.14,-674.34 -396.78,-972.94 -232.65,-367.02 -540.34,-681.64 -902.53,-922.05 -296.14,-192.65 -623.54,-333.85 -966.87,-416.2 -222.6,-45.77 -450.89,-69.75 -678.32,-70.13 -211.13,0 -416.2,19.33 -614.54,63.97 -352.05,70.41 -684.95,211.32 -979.38,396.87 -371.28,230.66 -684.95,544.04 -928.49,909.16 -194.64,299.07 -336.32,631.51 -416.11,979.48 -44.63,204.88 -70.22,428.71 -70.22,659.46l-0.19 -0.1z"/>
  <path class="fil1" d="M1293.34 3008.84c0.09,947.26 768.44,1715.6 1715.7,1715.6 947.36,0 1715.7,-768.35 1715.7,-1715.7 0,-947.36 -768.34,-1715.7 -1715.7,-1715.7 -947.26,0 -1715.6,768.35 -1715.6,1715.7l-0.09 0.09zm1100.96 -2944.78l172.75 793.84c138.83,-29.57 281.45,-44.92 423.5,-44.92 5.97,0 12.42,0 18.29,0 173.04,0 339.26,19.05 499.22,57.71l179.29 -794.03c-220.14,-50.79 -446.05,-76.66 -671.97,-76.66 -1.8,0 -4.36,0 -6.16,0 -211.32,0 -416.2,19.33 -614.54,63.97l-0.38 0.09zm-32.12 5883.32c205.07,44.63 422.74,70.22 646.86,70.22 223.93,0 435.25,-25.59 646.39,-70.22l-173.04 -794.03c-155.32,32.88 -314.52,50.51 -473.53,51.36 -156.74,-0.66 -313.86,-18.01 -466.99,-51.36l-179.29 793.84 -0.38 0.19zm-2362.08 -2938.53c0,217.67 25.59,428.71 63.97,633.88l793.84 -173.04c-33.17,-151.34 -50.89,-306.18 -51.17,-461.03 0,-166.5 19.05,-333 51.17,-486.42l-793.84 -179.29c-40.84,219.19 -63.11,442.64 -64.06,665.62l0.09 0.28zm5153.25 480.17l793.84 179.29c44.92,-211.32 70.41,-435.53 70.41,-659.46 0,-217.67 -25.59,-422.46 -63.97,-627.34l-793.83 173.04c31.84,146.88 44.63,300.87 44.63,454.3 0,166.5 -19.05,326.46 -51.17,480.17l0.09 0zm-940.72 -2317.54c264.01,175.41 488.89,404.74 659.27,672.06l684.76 -435.25c-232.55,-366.93 -540.25,-681.54 -902.43,-921.96l-441.6 685.14zm-3745.16 3450.54c235.39,368.63 548.39,683.81 915.23,921.96l441.79 -684.95c-268.94,-173.42 -498.84,-402.93 -671.97,-672.26l-684.95 435.25 -0.09 0zm19.33 -3258.45l684.95 441.79c174.18,-269.13 406.06,-496.57 678.41,-665.62l-435.25 -691.49c-371.28,243.16 -691.49,550.58 -928.21,915.42l0.09 -0.09zm3706.21 3495.46l435.25 691.3c365.12,-236.24 675.95,-548.58 909.35,-915.13l-684.95 -442.07c-166.5,269.04 -396.87,492.96 -659.46,665.91l-0.19 0z"/>
  <path class="fil2" d="M2955.55 3254.63c-59.94,39.73 -82.99,87.94 -197.97,142.8 -380.84,181.75 -500.38,-265.68 -420,-479.59 57.56,-153.17 222.75,-295.37 325.25,-374.66 66.86,-51.72 127.55,-102.12 189.85,-159.55 125.79,-115.97 87.39,-91.67 156.17,-196.56 29.85,47.38 26.63,62.47 71.08,112.61 184.79,208.48 496.74,355.78 598.86,618.73 73.72,189.87 -13.75,425.62 -144.27,496.39 -190.87,103.48 -384.9,-90.8 -473.08,-161.44 -4.94,190.13 154.45,317.63 292.27,376.15l0.91 91.8 -692.07 -3.97 1.56 -87.38c150.95,-73 295.62,-187.67 291.43,-375.32zm-1149.85 -88.04c76.02,614.4 643.89,1131.06 1357.65,1046.05 611.5,-72.82 1139.2,-647.54 1048.31,-1356.79 -78.08,-609.33 -636.76,-1143.18 -1356.15,-1049.33 -616.77,80.47 -1139.14,637.84 -1049.8,1360.07z"/>
 </g>
</svg>
